<?xml version="1.0" encoding="utf-8"?>
<!-- Generator: Adobe Illustrator 13.0.0, SVG Export Plug-In . SVG Version: 6.00 Build 14948)  -->
<!DOCTYPE svg PUBLIC "-//W3C//DTD SVG 1.1//EN" "http://www.w3.org/Graphics/SVG/1.1/DTD/svg11.dtd">
<svg version="1.1" id="afa8f846-9f09-4e7c-bda3-49d724cd1542"
	 xmlns="http://www.w3.org/2000/svg" xmlns:xlink="http://www.w3.org/1999/xlink" x="0px" y="0px" width="886px" height="792.695px"
	 viewBox="0 0 886 792.695" enable-background="new 0 0 886 792.695" xml:space="preserve">
<title>creative_process</title>
<polygon fill="#D0CDE1" points="876,663.695 876,758.695 755,785.695 512,765.695 512,680.695 515.98,680.025 516.35,679.964 
	726,644.695 873.43,663.365 "/>
<polygon opacity="0.1" enable-background="new    " points="755,694.695 755,785.695 512,765.695 512,680.695 515.98,680.025 "/>
<polygon opacity="0.1" fill="#FFFFFF" enable-background="new    " points="873.43,663.365 755,694.695 516.35,679.964 726,644.695 
	"/>
<path fill="#E6E6E6" d="M827.066,423.107l0.867,2.129c-2.149,0.876-4.325,1.721-6.466,2.51l-0.796-2.157
	C822.789,424.808,824.94,423.973,827.066,423.107z"/>
<path fill="#3F3D56" d="M833.146,665.216c-0.229-0.375-5.641-9.41-7.517-28.172c-1.721-17.213-0.614-46.227,14.433-86.699
	c28.506-76.67-6.569-138.533-6.928-139.148l1.73-1.004c0.091,0.156,9.142,15.928,14.488,41.043
	c7.064,33.299,4.492,67.92-7.416,99.807c-28.457,76.541-7.301,112.773-7.084,113.131L833.146,665.216z"/>
<circle fill="#007FA6" cx="822" cy="393.695" r="13"/>
<circle fill="#3F3D56" cx="863" cy="441.695" r="13"/>
<circle fill="#007FA6" cx="835" cy="473.695" r="13"/>
<circle fill="#007FA6" cx="869" cy="500.695" r="13"/>
<circle fill="#3F3D56" cx="825" cy="542.695" r="13"/>
<path fill="#3F3D56" d="M841,665.695c0,0-13-32,26-56L841,665.695z"/>
<path fill="#3F3D56" d="M825.012,665.115c0,0-5.916-34.029-51.708-33.738L825.012,665.115z"/>
<circle fill="#2F2E41" cx="745.446" cy="208.791" r="43.655"/>
<path fill="#A0616A" d="M683.625,302.643l-12.171,27.586l-12.981-38.945c0,0-1.623-34.077-12.981-32.454
	c-11.359,1.623-1.623,34.077-1.623,34.077s7.302,72.211,23.529,68.154c16.228-4.057,26.774-27.586,26.774-27.586l2.84-24.877
	L683.625,302.643z"/>
<path fill="#A0616A" d="M728.655,240.573c0,0,4.868,26.775-5.68,32.455c-10.548,5.679,40.568,4.057,41.38-4.868
	c0,0-11.359-27.586-11.359-34.077L728.655,240.573z"/>
<path fill="#A0616A" d="M651.576,460.453c0,0,4.057,46.246,5.68,55.982c1.622,9.736,1.622,24.342,1.622,24.342
	s-4.057,31.643-2.434,61.662l2.434,25.152h18.661l0.713-3.348l7.401-34.785c0,0,8.113-28.398,4.868-49.494l8.925-68.154
	L651.576,460.453z"/>
<path fill="#A0616A" d="M709.183,476.679c0,0,19.473,60.852,24.341,67.342c4.868,6.492,11.358,21.096,11.358,21.096
	s13.794,34.078,21.096,39.758l8.113,14.604l13.794-4.057l-4.058-32.455c0,0-1.622-26.773-19.473-50.303l-8.925-54.361
	L709.183,476.679z"/>
<path fill="#3F3D56" d="M758.676,267.348c0,0-24.022,6.278-33.106,3.544c0,0-9.085-0.299-12.33,0.513
	c-3.245,0.811-23.529,8.113-23.529,9.736c0,1.623,4.057,17.85,4.057,17.85s-2.434,9.736-1.623,16.227
	c0.812,6.491-14.604,26.775-6.49,28.398c8.113,1.623,12.981-1.623,17.038,1.623c4.057,3.245,52.738,17.85,52.738,17.85
	l40.568-80.325c0,0-6.491-13.793-12.171-13.793c-5.679,0-20.82-4.15-20.82-4.15L758.676,267.348z"/>
<path fill="#3F3D56" d="M693.767,281.953l-4.057-1.623c0,0-14.604,22.718-9.736,25.152s17.038,8.114,17.038,8.114L693.767,281.953z"
	/>
<path fill="#2F2E41" d="M692.144,340.371l-12.981,21.095c0,0-20.284,3.246-21.906,30.832c0,0-13.793,4.868-17.039,30.021
	c0,0-20.284,12.982-9.736,27.586c10.548,14.605,67.343,43.814,127.384,34.078c0,0,11.358-22.719,3.245-38.135
	c0,0,8.703-16.367-6.196-27.656c0,0,12.688-16.157-0.295-34.007l0.812-25.963L692.144,340.371z"/>
<path fill="#2F2E41" d="M679.974,625.158h-22.718c0,0-0.812,20.283-9.736,25.152c-8.926,4.867-25.964,30.832-12.982,34.076
	c12.982,3.246,51.116-21.094,51.116-26.773S679.974,625.158,679.974,625.158z"/>
<path fill="#2F2E41" d="M789.507,612.175l-19.473,7.303c0,0,14.604,39.756,14.604,45.436s2.435,12.172,17.039,9.736
	c14.604-2.434,12.17-13.793,12.17-13.793L789.507,612.175z"/>
<circle fill="#A0616A" cx="736.769" cy="222.723" r="25.152"/>
<path fill="#A0616A" d="M792.753,310.35c0,0-11.359,40.568-12.982,43.813l-26.774,68.966c0,0,3.245,34.888-8.925,29.208
	c-12.171-5.68-0.812-35.699-0.812-35.699l18.661-73.833l10.548-32.455H792.753z"/>
<path fill="#3F3D56" d="M786.262,276.273l9.736,6.491c0,0,8.113,31.643,0,30.832s-26.775,4.057-27.586,2.434
	C767.601,314.407,786.262,276.273,786.262,276.273z"/>
<circle fill="#2F2E41" cx="759.005" cy="163.055" r="18.064"/>
<path fill="#2F2E41" d="M734.919,153.27c0.001-9.248,6.985-17.002,16.183-17.966c-0.625-0.065-1.253-0.098-1.882-0.098
	c-9.977-0.001-18.065,8.085-18.066,18.062s8.085,18.065,18.062,18.067c0.002,0,0.004,0,0.005,0c0.629,0,1.257-0.033,1.882-0.098
	C741.904,170.272,734.92,162.518,734.919,153.27z"/>
<ellipse fill="#2F2E41" cx="738.145" cy="194.552" rx="30.106" ry="18.064"/>
<ellipse fill="#A0616A" cx="763.544" cy="221.506" rx="2.028" ry="4.868"/>
</svg>
